<svg width="205" height="165" viewBox="0 0 205 165" fill="none" xmlns="http://www.w3.org/2000/svg">
<rect x="18.98" y="0.236328" width="166.565" height="98.7055" rx="2" fill="white"/>
<path d="M17.5396 104.509C17.7834 103.649 18.5692 103.055 19.4638 103.055H183.053C183.925 103.055 184.696 103.62 184.959 104.451L203.228 162.142C203.636 163.431 202.674 164.746 201.321 164.746H3.11806C1.79113 164.746 0.832074 163.477 1.1938 162.2L17.5396 104.509Z" fill="white"/>
<path d="M81.0297 142.552C81.2736 141.692 82.0594 141.098 82.954 141.098H121.619C122.491 141.098 123.262 141.663 123.525 142.494L127.143 153.917C127.551 155.206 126.588 156.52 125.236 156.52H79.7175C78.3906 156.52 77.4316 155.252 77.7933 153.975L81.0297 142.552Z" fill="#1A80D9"/>
</svg>
