<svg width="554" height="118" viewBox="0 0 554 118" fill="none" xmlns="http://www.w3.org/2000/svg">
<rect x="77.0878" y="15.4297" width="64.9715" height="19.9912" rx="2" fill="white"/>
<rect x="77.0879" y="80.4014" width="64.9715" height="19.9912" rx="2" fill="white"/>
<rect x="83.7516" y="48.7485" width="51.644" height="18.3253" rx="2" fill="white"/>
<rect x="0.454468" y="15.4297" width="68.3034" height="19.9912" rx="2" fill="white"/>
<rect x="24.6105" y="100.392" width="68.3034" height="19.9912" rx="2" transform="rotate(-90 24.6105 100.392)" fill="white"/>
<rect x="240.468" y="38.7534" width="62.5892" height="19.9912" rx="2" transform="rotate(25 240.468 38.7534)" fill="white"/>
<rect x="232.738" y="100.392" width="84.9628" height="19.9912" rx="2" transform="rotate(-90 232.738 100.392)" fill="white"/>
<rect x="276.052" y="100.392" width="84.9628" height="19.9912" rx="2" transform="rotate(-90 276.052 100.392)" fill="white"/>
<path d="M217.221 87.9499C211.573 94.079 204.332 98.1865 196.47 99.7212C188.609 101.256 180.502 100.144 173.24 96.5359C165.977 92.9273 159.905 86.9943 155.839 79.5333C151.774 72.0723 149.908 63.4403 150.494 54.7959C151.08 46.1515 154.089 37.9084 159.116 31.1729C164.144 24.4374 170.95 19.5319 178.621 17.1148C186.292 14.6978 194.461 14.8848 202.031 17.6507C209.602 20.4167 216.211 25.6293 220.973 32.5889L203.748 46.4645C201.595 43.3185 198.608 40.9622 195.186 39.7119C191.764 38.4615 188.071 38.377 184.603 39.4696C181.136 40.5622 178.059 42.7797 175.786 45.8244C173.514 48.8691 172.154 52.5953 171.889 56.5029C171.624 60.4105 172.467 64.3125 174.305 67.6852C176.143 71.0578 178.888 73.7397 182.171 75.371C185.454 77.0022 189.118 77.5046 192.672 76.8109C196.226 76.1171 199.499 74.2603 202.052 71.4898L217.221 87.9499Z" fill="white"/>
<rect x="218.194" y="28.9341" width="9.21341" height="22.2503" rx="2" transform="rotate(52.3719 218.194 28.9341)" fill="white"/>
<rect x="196.459" y="77.0483" width="10.9982" height="22.4184" rx="2" transform="rotate(-45 196.459 77.0483)" fill="white"/>
<rect x="305.321" y="0.436523" width="248.225" height="116.616" rx="5" fill="#1A80D9"/>
<rect x="329.601" y="37.7329" width="68.7945" height="21.9732" rx="2" transform="rotate(25 329.601 37.7329)" fill="#051319"/>
<rect x="320.314" y="105.577" width="93.3862" height="21.9732" rx="2" transform="rotate(-90 320.314 105.577)" fill="#051319"/>
<rect x="368.712" y="105.484" width="93.3862" height="21.9732" rx="2" transform="rotate(-90 368.712 105.484)" fill="#051319"/>
<path d="M400.279 72.9044C400.279 81.5201 403.877 89.783 410.282 95.8753C416.686 101.968 425.373 105.39 434.431 105.39C443.488 105.39 452.175 101.968 458.58 95.8753C464.984 89.783 468.582 81.5201 468.582 72.9044H446.854C446.854 76.0385 445.545 79.0443 443.215 81.2605C440.885 83.4767 437.726 84.7217 434.431 84.7217C431.136 84.7217 427.976 83.4767 425.646 81.2605C423.316 79.0443 422.007 76.0385 422.007 72.9044H400.279Z" fill="#051319"/>
<rect x="400.279" y="77.0693" width="64.9715" height="21.6572" rx="2" transform="rotate(-90 400.279 77.0693)" fill="#051319"/>
<rect x="446.925" y="77.0693" width="64.9715" height="21.6572" rx="2" transform="rotate(-90 446.925 77.0693)" fill="#051319"/>
<path d="M509.822 48.8428C517.7 48.8428 525.256 51.8564 530.826 57.2206C536.397 62.5849 539.526 69.8604 539.526 77.4466C539.526 85.0328 536.397 92.3083 530.826 97.6725C525.256 103.037 517.7 106.05 509.822 106.05L509.822 86.3767C512.282 86.3767 514.641 85.4359 516.38 83.7611C518.119 82.0864 519.096 79.815 519.096 77.4466C519.096 75.0782 518.119 72.8068 516.38 71.132C514.641 69.4573 512.282 68.5165 509.822 68.5165V48.8428Z" fill="#051319"/>
<path d="M509.822 11.4385C517.7 11.4385 525.256 14.4521 530.826 19.8163C536.397 25.1806 539.526 32.4561 539.526 40.0423C539.526 47.6285 536.397 54.904 530.826 60.2682C525.256 65.6325 517.7 68.6461 509.822 68.6461L509.822 48.8603C512.251 48.8603 514.58 47.9312 516.297 46.2775C518.015 44.6238 518.979 42.381 518.979 40.0423C518.979 37.7036 518.015 35.4607 516.297 33.807C514.58 32.1534 512.251 31.2243 509.822 31.2243V11.4385Z" fill="#051319"/>
<rect x="477.918" y="11.4385" width="37.405" height="19.8026" rx="2" fill="#051319"/>
<rect x="477.918" y="86.249" width="37.405" height="19.8026" rx="2" fill="#051319"/>
<rect x="488.92" y="48.8428" width="26.4035" height="19.8026" rx="2" fill="#051319"/>
</svg>
