<svg width="554" height="305" viewBox="0 0 554 305" fill="none" xmlns="http://www.w3.org/2000/svg">
<rect x="191.98" y="0.236328" width="166.565" height="98.7055" rx="2" fill="white"/>
<path d="M190.54 104.509C190.783 103.649 191.569 103.055 192.464 103.055H356.053C356.925 103.055 357.696 103.62 357.959 104.451L376.228 162.142C376.636 163.431 375.674 164.746 374.321 164.746H176.118C174.791 164.746 173.832 163.477 174.194 162.2L190.54 104.509Z" fill="white"/>
<path d="M254.03 142.552C254.274 141.692 255.059 141.098 255.954 141.098H294.619C295.491 141.098 296.262 141.663 296.525 142.494L300.143 153.917C300.551 155.206 299.588 156.52 298.236 156.52H252.718C251.391 156.52 250.432 155.252 250.793 153.975L254.03 142.552Z" fill="#1A80D9"/>
<rect x="77.0878" y="202.43" width="64.9715" height="19.9912" rx="2" fill="white"/>
<rect x="77.0879" y="267.401" width="64.9715" height="19.9912" rx="2" fill="white"/>
<rect x="83.7516" y="235.749" width="51.644" height="18.3253" rx="2" fill="white"/>
<rect x="0.454468" y="202.43" width="68.3034" height="19.9912" rx="2" fill="white"/>
<rect x="24.6105" y="287.392" width="68.3034" height="19.9912" rx="2" transform="rotate(-90 24.6105 287.392)" fill="white"/>
<rect x="240.468" y="225.753" width="62.5892" height="19.9912" rx="2" transform="rotate(25 240.468 225.753)" fill="white"/>
<rect x="232.738" y="287.392" width="84.9628" height="19.9912" rx="2" transform="rotate(-90 232.738 287.392)" fill="white"/>
<rect x="276.052" y="287.392" width="84.9628" height="19.9912" rx="2" transform="rotate(-90 276.052 287.392)" fill="white"/>
<path d="M217.221 274.95C211.573 281.079 204.332 285.187 196.47 286.721C188.609 288.256 180.502 287.144 173.24 283.536C165.977 279.927 159.905 273.994 155.839 266.533C151.774 259.072 149.908 250.44 150.494 241.796C151.08 233.152 154.089 224.908 159.116 218.173C164.144 211.437 170.95 206.532 178.621 204.115C186.292 201.698 194.461 201.885 202.031 204.651C209.602 207.417 216.211 212.629 220.973 219.589L203.748 233.464C201.595 230.318 198.608 227.962 195.186 226.712C191.764 225.462 188.071 225.377 184.603 226.47C181.136 227.562 178.059 229.78 175.786 232.824C173.514 235.869 172.154 239.595 171.889 243.503C171.624 247.411 172.467 251.312 174.305 254.685C176.143 258.058 178.888 260.74 182.171 262.371C185.454 264.002 189.118 264.505 192.672 263.811C196.226 263.117 199.499 261.26 202.052 258.49L217.221 274.95Z" fill="white"/>
<rect x="218.194" y="215.934" width="9.21341" height="22.2503" rx="2" transform="rotate(52.3719 218.194 215.934)" fill="white"/>
<rect x="196.459" y="264.048" width="10.9982" height="22.4184" rx="2" transform="rotate(-45 196.459 264.048)" fill="white"/>
<rect x="305.321" y="187.437" width="248.225" height="116.616" rx="5" fill="#1A80D9"/>
<rect x="329.601" y="224.733" width="68.7945" height="21.9732" rx="2" transform="rotate(25 329.601 224.733)" fill="#051319"/>
<rect x="320.314" y="292.577" width="93.3862" height="21.9732" rx="2" transform="rotate(-90 320.314 292.577)" fill="#051319"/>
<rect x="368.712" y="292.484" width="93.3862" height="21.9732" rx="2" transform="rotate(-90 368.712 292.484)" fill="#051319"/>
<path d="M400.279 259.904C400.279 268.52 403.877 276.783 410.282 282.875C416.686 288.968 425.373 292.39 434.431 292.39C443.488 292.39 452.175 288.968 458.58 282.875C464.984 276.783 468.582 268.52 468.582 259.904H446.854C446.854 263.039 445.545 266.044 443.215 268.26C440.885 270.477 437.726 271.722 434.431 271.722C431.136 271.722 427.976 270.477 425.646 268.26C423.316 266.044 422.007 263.039 422.007 259.904H400.279Z" fill="#051319"/>
<rect x="400.279" y="264.069" width="64.9715" height="21.6572" rx="2" transform="rotate(-90 400.279 264.069)" fill="#051319"/>
<rect x="446.925" y="264.069" width="64.9715" height="21.6572" rx="2" transform="rotate(-90 446.925 264.069)" fill="#051319"/>
<path d="M509.822 235.843C517.7 235.843 525.256 238.856 530.826 244.221C536.397 249.585 539.526 256.86 539.526 264.447C539.526 272.033 536.397 279.308 530.826 284.673C525.256 290.037 517.7 293.05 509.822 293.05L509.822 273.377C512.282 273.377 514.641 272.436 516.38 270.761C518.119 269.086 519.096 266.815 519.096 264.447C519.096 262.078 518.119 259.807 516.38 258.132C514.641 256.457 512.282 255.516 509.822 255.516V235.843Z" fill="#051319"/>
<path d="M509.822 198.438C517.7 198.438 525.256 201.452 530.826 206.816C536.397 212.181 539.526 219.456 539.526 227.042C539.526 234.628 536.397 241.904 530.826 247.268C525.256 252.632 517.7 255.646 509.822 255.646L509.822 235.86C512.251 235.86 514.58 234.931 516.297 233.278C518.015 231.624 518.979 229.381 518.979 227.042C518.979 224.704 518.015 222.461 516.297 220.807C514.58 219.153 512.251 218.224 509.822 218.224V198.438Z" fill="#051319"/>
<rect x="477.918" y="198.438" width="37.405" height="19.8026" rx="2" fill="#051319"/>
<rect x="477.918" y="273.249" width="37.405" height="19.8026" rx="2" fill="#051319"/>
<rect x="488.92" y="235.843" width="26.4035" height="19.8026" rx="2" fill="#051319"/>
</svg>
